<svg xmlns="http://www.w3.org/2000/svg" pointer-events="none" class="leaflet-zoom-animated" width="1151" height="593" viewBox="-96 -49 1151 593" style="transform: translate3d(-96px, -49px, 0px) scale(1);"><g><path class="leaflet-interactive" stroke="red" stroke-opacity="1" stroke-width="2" stroke-linecap="round" stroke-linejoin="round" stroke-dasharray="1,6" fill="none" d="M314 228L316 226L314 224L314 218L308 217"/><path class="leaflet-interactive" stroke="blue" stroke-opacity="1" stroke-width="0.7" stroke-linecap="round" stroke-linejoin="round" fill="none" d="M539 364L539 364M538 364L538 364M542 364L542 364M536 365L536 365M540 366L540 366M534 326L527 330L526 329L519 332L518 331L515 334L517 338L514 339L512 335L513 332L511 330L502 330M507 330L507 330M521 340L521 340M521 340L521 340M521 340L521 340M521 340L521 340M521 340L521 340M521 340L521 340M526 331L526 331M529 330L529 330M530 329L530 329M530 329L530 329M530 329L529 330L530 329M530 329L530 329M531 401L531 401M531 401L531 401M531 401L531 401M531 401L531 401M531 329L531 329M534 327L534 327M534 326L534 326M534 326L534 326M534 326L534 326M534 326L534 326M534 326L534 326M534 326L534 326M538 326L536 326L537 325L535 323L534 326M535 328L535 328M536 324L536 324M536 327L536 327M536 327L536 327M536 326L536 326M537 326L537 326M537 328L537 328M538 326L538 326M538 324L538 324M553 319L548 323L540 323L540 325L538 324M538 324L538 324M538 324L538 324M538 325L538 325M538 324L538 324M538 324L538 324M538 324L538 324M538 324L538 324M538 326L538 326M538 325L538 325M538 324L538 324M538 324L539 326M538 325L538 325M538 324L538 324M538 324L538 324M538 325L538 325M538 325L538 325M538 325L538 325M538 325L538 325M538 325L538 325M538 325L538 325M538 325L538 325M538 325L538 325M538 325L538 325M538 325L538 325M538 326L538 326M538 326L538 326M538 325L538 326M538 326L538 326M538 326L538 326M538 326L538 326M538 326L538 326M538 325L538 325M538 325L538 325M538 326L538 326M538 325L538 325M538 325L538 325M538 325L538 325M538 325L538 325M538 325L538 325M538 325L538 325M538 325L538 325M539 326L538 325M538 326L538 326M538 325L538 325M539 326L539 326M539 326L539 326M539 326L539 326M539 326L539 326M539 326L539 326M539 325L539 325M539 325L539 325M539 325L539 325M539 325L539 325M539 325L539 325M545 324L545 324M545 324L545 324M547 323L547 323M547 323L547 323M553 319L553 319M553 319L553 319M553 319L553 319M553 319L553 319M553 319L553 319M553 319L553 319M553 319L553 319M560 312L560 314L553 319M553 318L553 318M554 319L554 319M560 314L560 314M560 312L560 312M560 312L560 312M560 312L560 312M561 312L560 312M560 313L560 313M560 313L560 313M561 312L561 312M561 312L561 312M561 312L562 313L561 312M561 312L561 312M561 312L561 312M561 312L561 312M561 312L561 312M563 312L561 312M562 312L562 312M562 312L562 312M563 312L563 312M565 309L563 312M563 312L563 312M563 312L563 312M563 311L563 311M563 311L563 311M565 308L565 308M565 309L565 309M565 309L565 309M569 307L566 306L567 307L565 307L565 309M566 307L566 307M568 306L568 306M568 307L568 307M568 307L568 307M568 307L568 307M568 305L568 305M568 307L568 307M568 305L568 305M569 305L569 305M569 307L569 307M569 305L569 305M569 307L569 307M569 306L569 306M569 305L569 305M569 307L569 307M569 307L569 307M569 307L569 307M569 307L569 307M577 291L575 291L575 294L570 299L571 298L568 299L570 300L568 302L568 305L570 305L569 307M570 301L570 301M570 305L570 305M570 306L570 306M570 300L570 300M570 300L570 300M571 302L571 302M571 302L571 302M571 302L571 302M571 302L571 302M571 303L571 303M571 301L571 301M571 301L571 301M575 293L575 293M575 296L575 296M575 296L575 296M575 296L575 296M576 202L564 214L562 214L563 215L559 213L557 219L559 219L562 222L565 221L565 226L567 228L569 228L574 223L578 225M596 206L594 209L587 210L577 217L577 215L580 214L578 210L583 205L583 203L581 201L576 202M577 291L577 291M582 283L580 283L580 287L577 291M577 291L577 291M577 291L577 291M577 292L577 292M578 225L585 226L585 230L582 229L578 231L574 236L571 235L572 236L566 243L566 245L573 249L576 256L576 260L578 260L579 263L581 263L582 266L578 265L578 267M578 274L578 274M578 267L582 270L583 273L577 273L582 278M579 225L579 225M579 225L579 225M579 225L579 225M579 225L579 225M579 225L579 225M579 225L579 225M579 225L579 225M579 225L579 225M579 225L579 225M579 289L579 289M579 290L579 290M579 290L579 290M579 290L579 290M579 290L579 290M580 275L580 275M581 286L581 286M582 278L582 283M582 276L582 276M582 278L582 278M582 278L582 278M582 278L582 278M582 230L582 230M583 277L583 277M583 277L583 277M583 277L583 277M583 277L583 277M583 277L583 277M583 277L583 277M583 277L583 277M583 277L583 277M583 225L583 225M584 277L584 277M584 277L584 277M584 277L584 277M584 277L584 277M585 277L585 277M585 275L585 275M585 278L585 278M585 275L585 275M588 211L588 211M588 211L588 211M588 212L588 212M589 210L589 210M506 344L510 340L511 341L517 339L520 341L517 347L512 351L506 348L506 344M509 334L509 334M511 414L512 413L511 414M513 411L513 411M516 410L517 409L516 410M517 333L516 334L517 333M517 333L517 333M517 334L517 334M522 357L522 357M523 413L523 413M523 411L523 411M523 411L523 411M523 362L523 362M523 406L524 407L523 406M523 412L523 412M524 363L524 363M525 410L525 410M525 362L525 362M526 358L526 358M527 362L527 362M528 364L529 363L528 364M528 361L528 361M528 401L528 401M528 424L528 424M528 423L528 423M528 330L529 329L528 330M528 405L529 406L528 405M528 427L528 427M528 424L529 425L528 424M529 425L529 425M529 427L529 427M530 428L531 427L530 428M531 343L531 343M532 410L533 409L532 410M534 326L534 326M534 405L535 404L534 405M535 412L535 412M536 345L536 345M536 410L536 410M536 413L540 411L536 413M536 406L536 406M536 405L537 406L536 405M538 397L538 397M539 394L539 394M539 395L540 394L539 395M539 410L540 409L539 410M540 405L540 405M540 399L540 399M540 391L540 391M540 413L540 413M540 390L541 391L540 390M540 397L540 397M541 393L541 393M541 363L541 363M541 415L541 415M541 410L542 411L541 410M542 394L542 394M542 413L542 413M543 408L544 409L543 408M544 376L544 376M545 399L545 399M545 408L545 408M547 400L547 400M547 334L547 334M548 333L548 333M548 403L548 403M548 398L548 398M551 397L551 397M552 396L552 396M552 362L552 362M552 335L553 336L552 335M554 319L554 319M555 395L555 395M555 393L555 393M558 394L558 394M568 308L568 308M569 318L569 318M569 299L569 299M571 320L576 310L579 307L582 308L576 328L574 328L571 320M573 297L573 297M577 290L577 290M580 266L582 267L577 265L580 266M579 323L579 323M579 327L579 327M581 268L580 267L581 268M581 268L581 268M581 276L582 277L581 276M582 269L582 269M582 275L582 275M583 275L583 275M583 279L582 278L583 279M584 276L582 276L584 276M584 278L584 278M584 279L583 278L584 279M584 275L584 275M584 277L585 278L584 277M584 274L584 274M584 277L584 277M588 211L588 211M589 215L589 215M590 304L591 305L589 305L590 304M591 303L592 304L591 303M596 303L597 304L596 303M558 368L558 368M527 434L527 434M525 434L525 434M527 434L527 434"/><path class="leaflet-interactive" stroke="#F2F7F7" stroke-opacity="1" stroke-width="0.2" stroke-linecap="round" stroke-linejoin="round" stroke-dasharray="1,10" fill="none" d="M398 236L396 234L386 233L378 235L377 238L368 239L369 240L367 241L363 241L357 238L353 242L349 240L345 241L343 245L341 247L337 247L338 248M444 260L442 260L442 262L438 264L439 266L435 264L436 266L433 266L431 262L430 263L430 261L426 259L422 261L401 254L398 250L398 236M414 214L401 218L401 220L403 220L403 224L407 227L407 229L404 231L406 233L405 236L401 234L398 236M464 248L469 249L470 247L468 245L471 242L470 241L472 239L473 240L472 238L474 236L471 229L472 228L468 224L463 223L457 218L457 220L451 214L448 214L446 216L440 213L440 217L436 221L432 219L427 219L425 216L423 217L418 215L418 213L414 214M436 187L434 189L434 193L430 196L430 194L428 194L421 202L417 203L413 213L414 214M481 226L476 223L476 219L481 215L479 211L474 214L467 214L468 217L462 215L462 213L459 210L454 208L458 205L458 201L455 200L450 203L447 203L447 200L443 197L445 195L441 186M467 253L467 255L463 255L464 258L460 260L457 259L457 257L455 259L452 256L450 256L448 250L445 249L442 252L444 254L442 258L444 260M452 282L451 272L449 269L450 268L448 266L447 261L444 260M446 289L450 288L449 285L451 285L452 282M487 292L486 289L484 291L482 290L482 286L478 286L479 287L476 290L477 291L473 295L474 300L467 302L463 296L464 295L457 290L458 289L455 285L453 289L452 282M464 248L461 248L465 253L466 252L466 254L467 253M488 258L486 260L483 259L481 257L481 253L477 251L476 252L474 248L469 250L471 254L469 256L467 256L467 253M500 223L494 220L497 215L496 212L494 212L490 216L489 224L481 226M481 226L483 226L483 228L484 227L487 230L487 238L488 237L493 242L493 238L496 237L496 235L493 232L495 230L494 229L498 228M487 292L487 294L482 293L477 296L478 299L483 300L481 305L484 308L483 311M483 311L483 313L487 315L492 315L492 317L488 320M511 303L508 304L508 306L507 305L502 308L499 308L498 305L497 308L496 307L492 309L492 311L487 309L483 311M493 287L491 285L489 287L493 290L492 292L487 292M498 228L498 230L502 232L503 231L502 232L506 234L506 240L502 242L501 241L500 244L495 243L493 246L495 248L493 251L494 252L491 253L491 256L488 258M505 262L502 263L499 260L498 261L496 259L493 260L491 258L488 258M510 287L508 289L504 285L504 283L501 284L501 282L499 282L499 284L497 284L494 287L494 285L493 287M493 287L493 285L490 284L487 280L491 274L496 277L500 273L499 272L503 270L505 266L504 264M497 276L497 276M497 276L497 276M498 228L500 223M520 212L519 211L517 213L515 211L515 213L512 214L512 216L508 219L507 224L504 225L500 223M504 264L505 262M505 262L511 266M511 266L515 269L515 271L513 271L510 274L507 273L504 278L506 278L508 280L507 281L509 281L509 283M509 283L510 287M536 283L534 279L531 281L530 279L527 280L524 277L523 278L519 276L517 276L516 279L511 279L509 283M511 303L510 295L507 296L511 292L510 287M525 311L523 311L522 308L519 310L522 304L521 301L519 300L516 303L514 303L514 301L511 303M519 255L511 255L513 257L512 258L515 259L511 261L511 266M513 331L512 331M516 328L514 328L512 330L513 331M513 339L514 339M514 339L516 339M516 246L516 229L518 227L517 220L521 213L520 212M516 246L520 254L519 255M516 246L526 243L526 241L532 241L534 239L535 234M516 328L516 326L517 327L518 324L522 322L522 318L525 315L525 311M516 339L517 338M544 268L537 265L535 261L526 261L519 255M537 202L534 205L528 205L525 208L525 210L520 212M525 311L526 308L530 310L532 306L536 306M542 235L535 234M535 234L534 231L537 224L534 218L540 210L539 211L537 206M536 306L538 302L536 302L536 294L534 294L534 292L538 288L536 283M549 278L545 278L542 281L538 281L536 283M536 306L541 307L538 310L538 312L544 310L546 312L547 309M537 206L537 206M537 206L539 205L537 202M554 189L552 193L546 193L543 196L540 191L536 197L537 202M543 235L542 235M542 235L542 235M545 235L543 235M549 246L552 250L550 252L547 250L545 251L546 252L544 256L542 256L542 258L545 261L546 260L548 263L544 268M549 278L547 274L548 271L547 269L544 268M559 220L556 223L552 223L550 226L549 225L550 226L544 232L545 235M549 246L545 246L545 244L541 242L548 235L545 238L545 235M545 261L545 261M546 210L546 210M556 206L556 202L554 202L551 199L551 201L550 200L550 202L546 204L546 210M546 210L546 211M546 211L547 211M547 211L547 211M547 211L550 211M555 318L553 316L553 312L547 309M547 309L554 293L562 288M560 281L555 278L553 280L551 276L551 278L549 278M550 246L549 246M555 246L554 247L553 244L551 244L550 246M569 269L568 270L566 268L563 268L564 267L561 264L563 260L566 259L564 257L564 259L562 259L561 256L559 256L560 253L550 246M550 211L553 210M552 214L552 214M552 217L552 214M552 214L552 211M552 217L552 217M557 217L552 217M552 211L552 210M552 210L552 210M552 210L553 210M553 210L553 210M553 210L555 210L555 207M555 207L552 208L553 210M566 197L565 198L560 195L561 192L558 187L554 189M554 189L554 189M555 318L555 319M556 206L555 207M555 246L555 246M567 243L565 243L561 247L559 245L557 247L555 246M556 206L556 206M556 319L556 320M557 207L556 206M557 209L557 209M557 209L556 208L558 207M557 209L559 211M557 207L557 207M558 207L557 207M558 207L558 207M558 207L558 207M559 211L559 211M559 211L559 213M560 281L562 288M560 281L564 278L565 275L567 275L566 273L568 273L569 269M573 295L568 292L566 294L564 292L564 288L562 288M566 197L566 191L568 189L571 195L575 190L580 188L581 189L581 187L585 187L584 186L587 187L592 182M570 207L568 203L564 201L566 197M567 243L567 243M576 270L574 272L569 269M573 295L573 296M575 296L575 296M575 219L577 219M582 266L577 265L578 266L576 270M578 272L576 270M578 272L579 272M589 159L588 157L591 154L590 153L588 155L584 150L595 139L595 141L597 141L596 140L598 134L601 133L600 127L604 121L603 120L605 116L603 116L601 112L599 112L600 113L597 115L589 115L586 111L586 107L583 104L581 106L578 103L581 98L579 96M580 272L580 272M581 272L582 272M582 272L583 271M584 271L585 271M586 271L587 271M616 176L613 173L614 172L610 170L611 169L609 167L606 168L599 164L596 165L593 162L594 160L592 158L589 159M589 159L586 162L587 163L581 160L580 163L582 163L584 175L588 173L591 178L591 180L589 180L592 182M592 182L593 181L596 184L596 186L598 184L602 192L601 195L604 199L603 201M635 181L630 180L630 176L622 180L619 176L616 176M490 240L490 240"/><path class="leaflet-interactive" stroke="gray" stroke-opacity="1" stroke-width="0.7" stroke-linecap="round" stroke-linejoin="round" fill="none" d="M534 327L534 327M538 324L536 326L539 327L538 324"/><path class="leaflet-interactive" stroke="red" stroke-opacity="1" stroke-width="2" stroke-linecap="round" stroke-linejoin="round" fill="none" d="M308 217L306 212L309 210L308 209L310 206L311 207L318 202L318 205L323 205L326 199L329 200L338 194L344 192M336 264L334 260L339 260L335 250L337 248L333 246L331 240L327 240L324 237L322 237L319 231L317 231L317 229L314 230L312 228L314 228M336 264L336 264M488 320L487 319L479 325L478 323L474 325L472 323L470 323L470 325L466 325L467 332L464 333L463 329L459 331L457 327L452 326L454 322L451 321L449 317L451 315L450 314L444 316L443 315L444 308L448 304L450 304L450 294L448 292L447 293L446 288L443 287L440 292L436 288L433 288L428 292L424 293L420 297L412 297L411 293L409 293L408 290L405 291L406 290L397 289L394 295L394 291L392 289L389 291L385 291L382 289L380 289L380 291L378 289L378 291L365 281L364 282L356 276L355 277L355 275L351 274L350 277L347 274L343 273L342 271L339 271L336 268L336 264M344 192L344 187L346 185L345 184L348 183L345 172L342 169L352 166L357 167L358 166L356 162L360 152M360 152L361 150L366 153L375 152L375 142L381 139L381 136L383 134L387 134L389 138L388 139L393 143L400 145L403 148L406 155L404 165L407 168L408 167L413 169L421 169L428 175L430 174L436 187L461 187L466 188L469 191L479 194L482 193L483 195L485 195L498 189L510 189L515 187L525 178L522 174L525 168L529 170L536 170L541 165L544 166L550 162L549 161L553 157L556 158L556 156L565 154L569 156L570 153L563 144L559 144L556 147L554 145L550 145L548 147L546 145L545 143L547 142L552 128M502 330L495 328L494 325L496 323L488 320M504 422L504 416M510 363L513 369M516 386L514 392M524 437L530 435M545 415L549 410M552 128L558 131L562 128M562 128L567 126L566 123L571 111L575 109L575 104L571 102L576 96L592 94L596 97L600 97L605 102L608 108L607 109L610 113L610 117L613 121L612 124L614 124L614 129L617 131L620 130L628 136L630 136L632 144M562 394L565 387M565 364L565 371M571 346L568 352M582 330L577 335M585 319L587 311M632 144L633 147L639 147L650 141L657 140L653 144L655 146L651 150L652 151L649 157L650 158L645 168L644 169L638 166L636 169L633 170L635 176L634 185L632 185L630 187L631 188L627 184L626 188L623 189L622 192L616 192L618 196L617 197L612 196L610 194L603 202L602 201L596 206M632 144L632 144"/><path class="leaflet-interactive" stroke="#333" stroke-opacity="1" stroke-width="0.5" stroke-linecap="round" stroke-linejoin="round" stroke-dasharray="1,6" fill="#fff" fill-opacity="0.2" fill-rule="evenodd" d="M556 203L557 202L553 202L552 199L550 201L551 202L546 204L547 205L545 209L547 211L551 211L553 209L552 208L556 206L556 203z"/><path class="leaflet-interactive" stroke="#333" stroke-opacity="1" stroke-width="0.5" stroke-linecap="round" stroke-linejoin="round" stroke-dasharray="1,6" fill="#fff" fill-opacity="0.2" fill-rule="evenodd" d="M558 212L559 211L556 208L558 208L556 206L554 208L555 209L552 211L552 217L557 218L557 216L559 215L558 212zM558 212L558 212z"/><path class="leaflet-interactive" stroke="#333" stroke-opacity="1" stroke-width="0.5" stroke-linecap="round" stroke-linejoin="round" stroke-dasharray="1,6" fill="#fff" fill-opacity="0.2" fill-rule="evenodd" d="M556 202L555 205L558 208L556 208L561 215L563 215L562 214L564 214L570 207L568 203L564 201L566 197L565 198L560 195L561 192L558 187L554 189L552 193L546 193L543 196L540 191L538 193L536 199L538 205L540 205L537 207L536 206L539 209L539 211L540 210L539 213L535 215L536 216L534 220L537 223L537 225L535 231L533 231L536 234L544 236L544 232L548 227L559 220L557 218L552 217L553 210L545 210L545 208L548 205L547 204L551 202L550 201L552 199L553 202L556 202zM555 207L552 208L554 210L555 207zM558 212L558 212zM564 214L564 214z"/><path class="leaflet-interactive" stroke="#333" stroke-opacity="1" stroke-width="0.5" stroke-linecap="round" stroke-linejoin="round" stroke-dasharray="1,6" fill="#fff" fill-opacity="0.2" fill-rule="evenodd" d="M516 246L525 243L525 241L529 242L534 239L534 231L537 226L534 218L540 210L539 211L539 209L536 206L537 207L539 205L538 202L536 204L535 203L534 205L528 205L525 208L525 210L523 210L519 215L520 216L517 221L517 239L515 246z"/><path class="leaflet-interactive" stroke="#333" stroke-opacity="1" stroke-width="0.5" stroke-linecap="round" stroke-linejoin="round" stroke-dasharray="1,6" fill="#fff" fill-opacity="0.2" fill-rule="evenodd" d="M441 186L445 195L443 196L447 203L450 203L451 201L452 202L455 200L457 201L458 205L455 208L462 212L464 216L468 217L469 215L467 214L473 214L479 211L480 212L481 214L476 219L476 223L478 223L480 226L490 223L490 217L495 212L497 214L494 220L499 221L503 225L505 225L508 222L509 218L515 212L518 213L520 210L520 212L522 212L522 210L524 210L527 205L529 206L535 204L537 202L536 197L540 191L543 196L546 193L551 193L553 189L558 188L560 190L559 191L561 193L561 197L566 198L568 190L571 193L571 195L575 190L585 186L589 186L592 183L589 180L591 180L590 175L588 173L585 175L583 173L583 166L582 163L580 163L581 160L583 162L587 162L589 158L588 155L589 156L591 154L589 152L590 153L588 155L584 149L587 146L589 146L589 144L591 144L595 139L595 141L597 141L596 140L598 134L601 133L600 128L604 122L605 117L601 112L599 112L600 113L597 115L589 115L586 111L587 106L583 104L581 106L578 103L581 98L577 96L571 101L571 103L575 103L575 109L571 111L570 116L566 122L567 125L558 131L552 128L548 136L547 142L545 143L548 147L550 145L554 145L556 147L558 144L562 144L569 150L570 154L568 156L564 154L556 156L556 158L553 157L548 164L544 166L541 165L534 171L528 168L524 169L522 173L525 178L523 181L521 181L511 189L498 189L483 195L483 193L480 194L469 191L467 188L451 188L441 186z"/><path class="leaflet-interactive" stroke="#333" stroke-opacity="1" stroke-width="0.5" stroke-linecap="round" stroke-linejoin="round" stroke-dasharray="1,6" fill="#fff" fill-opacity="0.2" fill-rule="evenodd" d="M591 209L595 208L599 203L603 201L603 197L601 195L601 191L598 184L596 186L596 184L593 181L591 185L590 184L587 187L584 186L581 189L580 188L575 190L571 194L568 189L566 191L567 196L564 201L568 203L570 207L572 207L575 204L575 202L577 202L576 201L583 202L582 207L579 208L578 211L580 213L577 216L582 215L581 214L582 215L585 211L591 209zM586 213L585 212L586 213zM584 213L584 213zM586 213L586 213zM586 214L586 214zM588 211L588 211zM585 213L585 213zM575 204L575 204zM588 212L588 211zM589 215L589 214zM592 209L592 209z"/><path class="leaflet-interactive" stroke="#333" stroke-opacity="1" stroke-width="0.5" stroke-linecap="round" stroke-linejoin="round" stroke-dasharray="1,6" fill="#fff" fill-opacity="0.2" fill-rule="evenodd" d="M625 189L627 185L629 185L631 189L630 186L632 186L635 182L632 181L629 176L621 180L618 173L617 176L615 176L613 173L614 172L612 172L609 167L606 168L599 164L596 165L593 162L594 160L592 158L589 159L586 162L587 163L585 161L581 161L580 163L582 163L584 175L588 173L591 178L591 180L589 180L596 184L596 186L598 184L601 191L601 195L603 197L603 201L605 201L609 194L611 194L611 196L617 197L618 196L616 192L622 192L623 189L625 189z"/><path class="leaflet-interactive" stroke="#333" stroke-opacity="1" stroke-width="0.5" stroke-linecap="round" stroke-linejoin="round" stroke-dasharray="1,6" fill="#fff" fill-opacity="0.2" fill-rule="evenodd" d="M591 159L592 158L594 160L594 164L599 164L605 168L608 167L611 169L610 170L614 172L613 173L616 176L616 174L619 173L621 180L629 176L630 179L634 181L635 176L633 170L639 166L644 169L645 168L647 162L650 159L652 151L651 150L655 146L653 144L657 140L653 140L641 146L634 147L631 143L632 140L630 136L628 136L624 131L623 132L621 130L618 131L614 129L614 125L612 123L613 122L610 117L610 113L608 111L608 107L605 101L601 97L598 98L593 94L584 94L580 96L581 99L577 103L580 104L580 106L584 104L586 106L588 115L597 115L600 112L603 114L605 118L600 127L601 132L597 136L597 142L596 143L595 140L584 149L588 155L590 153L589 152L591 154L589 156L588 155L588 157L591 159z"/><path class="leaflet-interactive" stroke="#333" stroke-opacity="1" stroke-width="0.5" stroke-linecap="round" stroke-linejoin="round" stroke-dasharray="1,6" fill="#fff" fill-opacity="0.2" fill-rule="evenodd" d="M576 270L577 272L582 272L582 270L579 267L577 267L576 270zM582 266L577 265L579 267L582 267zM581 268L580 267L581 268zM581 268L583 269L581 268zM580 267L580 267zM582 269L582 269zM581 269L582 269z"/><path class="leaflet-interactive" stroke="#333" stroke-opacity="1" stroke-width="0.5" stroke-linecap="round" stroke-linejoin="round" stroke-dasharray="1,6" fill="#fff" fill-opacity="0.2" fill-rule="evenodd" d="M555 246L552 243L550 245L560 253L559 256L560 255L562 259L564 259L564 257L566 259L565 261L564 260L562 262L565 269L566 268L574 272L577 269L577 265L582 266L581 263L579 263L579 261L576 260L576 256L573 249L569 247L566 244L566 242L560 248L559 245L557 247L555 246z"/><path class="leaflet-interactive" stroke="#333" stroke-opacity="1" stroke-width="0.5" stroke-linecap="round" stroke-linejoin="round" stroke-dasharray="1,6" fill="#fff" fill-opacity="0.2" fill-rule="evenodd" d="M562 288L564 288L564 293L567 294L569 292L569 294L573 294L573 296L575 291L577 291L576 290L580 288L580 282L582 282L582 278L576 270L574 272L569 269L568 273L567 272L567 274L564 275L564 279L560 282L562 288zM583 277L584 276L582 276L583 277zM583 276L583 276zM583 279L583 279zM584 272L585 272zM583 275L583 275zM584 275L584 275zM582 282L582 282zM584 278L585 277L584 278zM584 274L584 274zM581 285L581 285zM584 278L584 278zM581 283L581 283zM578 292L578 292zM582 272L583 273L582 272zM581 287L581 287zM583 279L583 279zM585 277L585 277zM585 273L585 273zM581 287L581 287zM582 276L582 276zM584 277L584 277zM581 277L581 277zM577 293L577 293zM582 282L582 282zM582 279L582 279zM582 276L582 276zM582 275L582 275zM583 277L583 277zM584 279L583 279zM577 291L577 291zM586 276L586 276zM584 275L584 275zM584 278L584 278zM586 272L586 272zM577 290L577 290zM577 290L577 290zM585 277L585 277zM587 272L587 272zM583 277L583 277zM582 277L582 277zM577 290L577 290zM585 277L585 277zM583 277L583 277z"/><path class="leaflet-interactive" stroke="#333" stroke-opacity="1" stroke-width="0.5" stroke-linecap="round" stroke-linejoin="round" stroke-dasharray="1,6" fill="#fff" fill-opacity="0.2" fill-rule="evenodd" d="M551 250L552 251L549 252L547 250L545 251L546 252L544 256L542 256L542 258L545 261L546 260L548 263L544 267L548 271L547 274L549 278L551 278L551 276L553 280L555 277L561 281L564 278L564 276L567 275L569 270L567 268L564 269L564 267L561 264L563 260L566 259L564 257L564 259L562 259L561 256L559 256L560 253L551 246L549 246L551 250zM564 267L564 267zM552 279L552 279zM545 261L545 261z"/><path class="leaflet-interactive" stroke="#333" stroke-opacity="1" stroke-width="0.5" stroke-linecap="round" stroke-linejoin="round" stroke-dasharray="1,6" fill="#fff" fill-opacity="0.2" fill-rule="evenodd" d="M565 309L564 308L566 308L566 306L570 306L568 306L570 301L569 299L571 299L570 300L573 295L568 292L566 294L564 292L564 288L562 288L554 292L555 295L551 298L551 302L548 305L547 310L551 312L552 311L553 316L555 318L560 314L560 312L563 312L563 310L565 309zM562 312L561 313L562 312zM568 308L568 308zM568 305L568 305zM571 302L570 301zM561 313L561 313zM570 298L570 298zM560 312L560 312zM570 302L570 302zM569 302L568 302zM571 300L571 299zM569 305L569 305zM569 299L570 299zM571 299L571 299zM573 297L572 297zM572 298L572 298zM569 299L569 299z"/><path class="leaflet-interactive" stroke="#333" stroke-opacity="1" stroke-width="0.5" stroke-linecap="round" stroke-linejoin="round" stroke-dasharray="1,6" fill="#fff" fill-opacity="0.2" fill-rule="evenodd" d="M560 281L555 278L553 280L551 276L551 278L545 278L541 280L542 281L538 281L536 283L538 287L534 293L536 295L536 301L538 301L536 306L541 307L537 311L538 312L542 312L544 310L546 312L547 311L549 303L551 302L550 301L554 293L562 288L559 282L560 281z"/><path class="leaflet-interactive" stroke="#333" stroke-opacity="1" stroke-width="0.5" stroke-linecap="round" stroke-linejoin="round" stroke-dasharray="1,6" fill="#fff" fill-opacity="0.2" fill-rule="evenodd" d="M550 246L550 244L553 243L555 247L559 245L560 248L566 242L567 243L572 236L571 235L574 236L576 232L584 230L586 226L580 226L575 223L572 224L569 228L567 228L565 226L567 223L564 221L562 222L560 220L558 220L556 223L552 223L544 232L544 238L548 236L541 242L546 246L550 246zM575 222L575 223zM575 222L575 222zM576 233L576 233zM575 221L575 221zM576 219L576 219zM572 238L572 238zM574 222L574 222zM575 220L575 220zM579 225L579 225zM579 225L579 225zM579 225L579 225zM545 237L545 237z"/><path class="leaflet-interactive" stroke="#333" stroke-opacity="1" stroke-width="0.5" stroke-linecap="round" stroke-linejoin="round" stroke-dasharray="1,6" fill="#fff" fill-opacity="0.2" fill-rule="evenodd" d="M529 261L535 261L537 265L544 268L545 267L548 263L547 260L543 260L542 257L547 250L549 252L552 251L551 248L549 248L549 246L545 246L543 243L541 243L548 236L544 238L545 235L542 236L536 234L532 241L526 241L526 243L516 247L520 254L519 255L523 260L527 262L529 261zM535 262L535 262z"/><path class="leaflet-interactive" stroke="#333" stroke-opacity="1" stroke-width="0.5" stroke-linecap="round" stroke-linejoin="round" stroke-dasharray="1,6" fill="#fff" fill-opacity="0.2" fill-rule="evenodd" d="M520 256L511 255L513 257L512 258L515 259L511 261L511 265L515 269L515 271L513 271L510 274L507 273L505 275L505 279L506 278L508 280L507 281L509 281L509 283L511 279L517 279L518 276L527 280L531 278L530 279L532 281L534 278L535 283L538 281L542 281L541 280L545 278L549 278L547 274L548 271L545 268L537 265L535 261L525 261L520 256zM509 273L509 273zM520 256L520 256zM529 261L529 261zM530 278L530 278z"/><path class="leaflet-interactive" stroke="#333" stroke-opacity="1" stroke-width="0.5" stroke-linecap="round" stroke-linejoin="round" stroke-dasharray="1,6" fill="#fff" fill-opacity="0.2" fill-rule="evenodd" d="M525 311L526 308L530 310L532 306L536 306L538 302L536 302L537 299L536 294L534 294L534 292L538 288L534 282L534 278L531 281L530 278L528 280L524 277L523 278L517 276L516 279L514 278L510 280L509 285L511 293L509 293L507 296L511 296L510 301L513 304L514 301L514 303L516 303L519 300L521 304L522 303L519 309L520 310L522 308L523 311L525 310zM511 298L511 298z"/><path class="leaflet-interactive" stroke="#333" stroke-opacity="1" stroke-width="0.5" stroke-linecap="round" stroke-linejoin="round" stroke-dasharray="1,6" fill="#fff" fill-opacity="0.2" fill-rule="evenodd" d="M534 326L535 323L537 325L546 322L549 323L554 318L554 314L552 312L553 311L547 309L546 312L544 310L542 312L538 312L537 311L541 307L540 306L532 306L530 310L526 308L524 314L525 315L522 318L522 322L512 330L513 339L517 337L515 333L518 331L519 332L531 327L532 328L534 326zM554 319L554 319zM530 329L529 330L530 329zM528 330L529 329L528 330zM538 328L538 327zM516 333L517 332L516 333zM528 330L528 330zM517 333L515 334L517 333zM535 328L535 328zM535 328L535 328zM532 329L532 328zM536 325L535 325zM538 328L538 328zM537 328L537 328zM552 335L553 335zM531 329L531 328zM516 336L516 336zM517 334L517 334zM517 338L517 338zM548 333L548 333zM547 334L548 334zM547 323L547 323zM547 323L547 323z"/><path class="leaflet-interactive" stroke="#333" stroke-opacity="1" stroke-width="0.5" stroke-linecap="round" stroke-linejoin="round" stroke-dasharray="1,6" fill="#fff" fill-opacity="0.2" fill-rule="evenodd" d="M511 303L508 304L508 306L507 305L502 308L499 308L498 305L497 308L496 307L492 309L492 311L488 309L482 311L486 313L486 315L492 315L492 317L489 320L491 322L496 323L494 325L495 328L502 331L512 331L514 328L516 328L516 326L518 326L518 324L522 322L522 318L525 315L525 311L523 311L522 308L520 310L519 309L522 304L520 300L515 303L511 303zM486 309L486 310zM509 334L509 334z"/><path class="leaflet-interactive" stroke="#333" stroke-opacity="1" stroke-width="0.5" stroke-linecap="round" stroke-linejoin="round" stroke-dasharray="1,6" fill="#fff" fill-opacity="0.2" fill-rule="evenodd" d="M514 340L510 340L506 344L506 348L508 350L511 351L517 348L517 345L520 342L518 339L515 339zM526 434L526 434zM532 410L533 409zM525 434L525 434zM522 357L522 357zM558 369L558 368zM527 434L527 433zM524 363L524 362zM523 362L523 362zM536 413L540 411L536 412zM536 405L537 406L536 405zM536 406L536 406zM525 362L525 362zM524 361L524 361zM526 405L526 405zM535 414L536 414zM538 406L538 406zM526 358L527 358zM540 397L541 397zM547 400L547 400zM540 399L540 399zM535 412L536 412zM511 414L512 413L511 414zM549 405L550 405zM528 364L529 363L528 364zM528 405L529 405zM539 394L540 394zM527 362L528 362zM551 397L551 396zM527 358L527 358zM522 361L523 361zM545 399L545 399zM540 409L541 409zM539 410L540 409zM543 408L544 409L543 408zM536 410L536 410zM545 402L545 402zM551 404L551 404zM534 405L535 405zM540 393L541 393zM540 391L540 390zM542 394L542 394zM523 361L523 361zM536 405L536 406zM513 411L514 411zM552 390L552 390zM523 360L524 360zM528 361L528 361zM524 363L524 363zM536 399L536 398zM541 409L541 410zM551 400L551 400zM544 398L544 398zM553 396L553 396zM541 363L541 363zM548 403L548 403zM535 403L535 403zM540 413L541 413zM539 395L540 394zM558 394L558 394zM538 397L538 397zM540 390L541 390zM552 396L552 396zM516 410L517 409L516 410zM522 407L522 407zM544 407L544 407zM532 410L532 410zM537 393L537 393zM555 397L555 397zM538 364L538 363zM517 410L517 410zM545 408L545 407zM523 413L523 413zM523 406L524 407L523 406zM516 411L517 411zM527 405L527 405zM551 400L551 400zM525 410L525 410zM539 366L539 366zM542 393L542 393zM537 364L537 364zM548 398L548 398zM555 395L555 395zM541 415L541 415zM530 405L530 405zM523 412L523 412zM526 406L527 405zM528 423L528 423zM540 405L540 405zM541 410L542 410zM531 408L531 408zM534 416L534 416zM552 362L552 362zM556 398L556 398zM531 343L531 343zM539 364L539 363zM536 345L535 345zM529 427L529 427zM523 411L523 411zM527 405L527 405zM530 411L530 411zM528 424L529 424zM528 424L528 424zM544 376L544 376zM534 397L534 397zM536 367L536 367zM530 428L530 427zM528 427L529 427zM527 424L527 424zM526 359L526 359zM526 366L526 365zM529 425L529 425zM528 423L528 423zM532 420L532 420zM549 401L549 401zM542 413L542 413zM523 411L523 411zM536 365L536 365zM542 364L542 364zM552 404L552 404zM529 361L529 361zM521 340L521 340zM547 396L547 396zM555 395L555 395zM529 362L529 362zM547 396L547 396zM528 401L528 401zM540 366L540 366zM555 393L555 393zM558 393L558 393zM537 402L538 402zM541 400L541 401zM528 422L528 422z"/><path class="leaflet-interactive" stroke="#333" stroke-opacity="1" stroke-width="0.5" stroke-linecap="round" stroke-linejoin="round" stroke-dasharray="1,6" fill="#fff" fill-opacity="0.2" fill-rule="evenodd" d="M493 287L495 285L495 287L498 284L499 285L500 282L502 284L503 283L505 285L504 286L506 286L506 288L507 287L507 289L509 289L510 284L509 281L507 281L508 280L506 278L505 279L505 275L507 273L510 274L513 271L514 272L515 269L505 262L503 270L501 272L500 271L500 273L496 277L491 274L489 276L490 277L487 280L491 284L493 284L493 286zM509 273L509 273zM489 276L489 276zM509 273L509 273zM497 277L497 277z"/><path class="leaflet-interactive" stroke="#333" stroke-opacity="1" stroke-width="0.5" stroke-linecap="round" stroke-linejoin="round" stroke-dasharray="1,6" fill="#fff" fill-opacity="0.2" fill-rule="evenodd" d="M464 295L463 296L465 300L469 302L474 300L473 295L480 286L482 286L481 287L483 291L485 291L486 289L487 292L491 292L493 290L490 289L489 286L493 286L493 284L491 284L487 280L491 274L496 277L500 273L499 272L503 270L505 262L502 263L499 260L493 260L491 258L488 258L486 260L483 259L481 257L481 253L477 251L476 252L474 248L470 250L471 253L468 256L467 253L466 256L463 255L464 258L462 260L458 260L457 257L455 259L452 256L450 256L448 250L445 249L442 252L444 254L442 258L448 263L448 265L451 268L449 268L452 277L452 287L453 288L455 284L458 288L457 289L459 291L461 290L461 292L464 295zM493 276L493 276zM497 276L497 276zM489 276L489 276z"/><path class="leaflet-interactive" stroke="#333" stroke-opacity="1" stroke-width="0.5" stroke-linecap="round" stroke-linejoin="round" stroke-dasharray="1,6" fill="#fff" fill-opacity="0.2" fill-rule="evenodd" d="M510 287L508 289L504 285L504 283L501 284L501 282L499 282L498 285L497 284L494 287L494 285L494 287L491 285L489 287L493 290L491 292L488 291L487 294L479 294L477 296L478 299L483 300L481 305L484 308L483 311L487 309L492 311L492 309L496 307L497 308L498 305L499 308L503 308L503 306L506 307L506 305L509 306L508 305L510 305L511 296L507 296L511 292L510 287zM511 297L511 297zM511 298L511 298z"/><path class="leaflet-interactive" stroke="#333" stroke-opacity="1" stroke-width="0.5" stroke-linecap="round" stroke-linejoin="round" stroke-dasharray="1,6" fill="#fff" fill-opacity="0.2" fill-rule="evenodd" d="M487 292L486 289L484 291L482 290L482 286L478 287L479 288L477 288L477 291L473 295L474 300L468 302L465 299L462 292L459 291L455 285L453 287L454 288L452 288L452 282L451 285L449 285L450 288L449 289L447 287L446 290L447 293L448 292L450 294L450 304L448 304L444 309L443 315L451 315L449 315L449 317L451 321L452 320L451 321L454 322L452 326L457 327L459 331L463 329L463 331L467 333L467 325L471 323L474 325L476 323L484 323L485 320L489 320L492 317L492 315L486 315L487 314L482 311L484 309L482 305L484 300L482 298L478 298L480 294L487 294L487 292z"/><path class="leaflet-interactive" stroke="#333" stroke-opacity="1" stroke-width="0.5" stroke-linecap="round" stroke-linejoin="round" stroke-dasharray="1,6" fill="#fff" fill-opacity="0.2" fill-rule="evenodd" d="M398 236L396 234L386 233L378 235L377 238L371 238L366 241L362 241L359 238L357 238L353 242L349 240L345 241L341 247L337 247L338 248L335 250L339 258L338 261L336 261L336 259L334 261L334 263L337 266L337 270L343 271L343 273L350 277L351 274L353 274L363 282L366 281L368 285L373 286L372 287L378 291L378 289L380 291L380 289L384 291L394 290L393 293L395 295L396 291L399 288L409 291L409 293L411 293L413 297L420 297L432 288L436 288L440 292L443 287L447 289L447 287L449 289L449 285L451 285L452 282L452 277L447 261L443 260L441 262L442 263L438 265L439 266L435 264L436 266L433 266L431 262L430 263L430 261L426 259L422 261L401 254L399 252L400 251L398 251L398 236z"/><path class="leaflet-interactive" stroke="#333" stroke-opacity="1" stroke-width="0.5" stroke-linecap="round" stroke-linejoin="round" stroke-dasharray="1,6" fill="#fff" fill-opacity="0.2" fill-rule="evenodd" d="M516 246L516 230L518 226L517 221L521 213L520 210L517 213L515 211L515 213L512 214L512 216L508 219L507 224L504 225L500 223L498 225L498 229L506 233L506 241L501 241L500 244L495 243L493 247L495 247L493 251L494 252L490 254L490 258L488 257L489 259L497 259L502 263L505 262L510 266L512 264L511 261L515 259L512 258L513 257L511 255L518 256L520 254L517 251L518 250L516 246zM520 254L520 254zM491 259L491 259z"/><path class="leaflet-interactive" stroke="#333" stroke-opacity="1" stroke-width="0.5" stroke-linecap="round" stroke-linejoin="round" stroke-dasharray="1,6" fill="#fff" fill-opacity="0.2" fill-rule="evenodd" d="M494 238L493 241L490 240L490 238L487 237L487 230L484 227L483 228L483 226L476 223L476 219L481 215L479 211L474 214L467 214L468 217L462 215L462 213L459 210L454 208L458 205L458 201L455 200L450 203L447 203L447 200L443 197L445 195L441 186L436 187L434 189L435 191L433 194L429 194L421 202L417 203L413 213L417 213L423 217L424 216L426 219L432 219L435 221L438 220L438 218L440 218L439 215L441 213L446 216L450 214L455 219L457 220L457 218L464 223L469 224L468 225L471 228L474 237L472 237L473 240L472 239L468 245L470 248L469 249L465 249L462 247L461 248L465 253L466 252L466 254L468 254L468 256L471 253L469 250L473 248L475 252L476 251L481 253L481 257L483 259L488 259L488 257L489 258L491 256L489 254L494 253L494 243L501 244L502 241L506 241L506 233L495 228L493 232L496 235L496 237L494 238zM491 240L491 240zM473 234L473 234zM491 240L491 240zM494 238L494 238z"/><path class="leaflet-interactive" stroke="#333" stroke-opacity="1" stroke-width="0.5" stroke-linecap="round" stroke-linejoin="round" stroke-dasharray="1,6" fill="#fff" fill-opacity="0.2" fill-rule="evenodd" d="M473 234L471 229L472 228L468 224L463 223L461 220L457 218L458 220L456 219L451 214L448 214L446 216L440 213L440 217L436 221L433 219L427 219L425 216L423 217L418 215L418 213L401 218L401 220L403 220L403 224L407 228L404 231L406 233L405 236L400 234L400 236L397 237L399 237L397 241L397 244L399 244L398 251L400 251L399 252L404 256L408 256L422 261L426 259L430 261L429 262L431 262L433 266L435 266L435 264L439 266L438 265L442 263L441 262L443 260L442 257L444 255L442 251L445 249L449 252L450 256L452 256L455 259L457 257L458 260L462 260L464 258L463 255L465 256L467 255L467 253L466 254L466 252L465 253L461 249L470 248L468 244L470 240L473 239L473 234z"/><path class="leaflet-interactive" stroke="#333" stroke-opacity="1" stroke-width="0.5" stroke-linecap="round" stroke-linejoin="round" stroke-dasharray="1,6" fill="#fff" fill-opacity="0.2" fill-rule="evenodd" d="M498 228L500 222L494 220L497 215L496 212L494 212L491 215L489 224L481 226L483 226L483 228L484 227L487 230L487 236L493 242L493 238L496 237L496 235L493 232L495 230L494 229L498 228zM491 240L491 240zM491 240L491 240z"/><path class="leaflet-interactive" stroke="#333" stroke-opacity="1" stroke-width="0.5" stroke-linecap="round" stroke-linejoin="round" stroke-dasharray="1,6" fill="#fff" fill-opacity="0.2" fill-rule="evenodd" d="M436 187L430 174L429 175L417 168L407 168L404 165L406 160L406 154L401 146L395 144L389 139L389 137L387 137L388 134L382 134L382 138L380 140L376 140L375 142L375 152L366 153L361 150L356 162L358 166L352 166L343 169L345 171L345 175L348 182L345 185L347 185L344 187L345 190L341 194L340 193L330 200L327 199L323 203L323 205L319 205L318 203L314 204L311 207L310 206L306 213L309 218L312 217L314 219L313 220L315 226L312 227L312 229L316 229L320 232L321 237L328 240L332 240L333 245L338 248L337 247L341 247L346 240L352 242L358 238L360 240L367 241L371 238L377 238L378 235L386 233L405 236L406 233L404 231L407 228L403 224L403 220L401 220L401 218L413 215L417 203L422 201L428 194L430 194L430 196L435 192L435 187z"/><path class="leaflet-interactive" stroke="#333" stroke-opacity="1" stroke-width="0.5" stroke-linecap="round" stroke-linejoin="round" stroke-dasharray="1,6" fill="#fff" fill-opacity="0.2" fill-rule="evenodd" d="M573 325L574 328L576 328L576 324L579 321L582 309L580 307L574 312L571 317L572 324zM597 303L597 303zM590 304L590 304zM569 318L568 318zM592 303L592 303zM568 318L568 318zM568 319L568 319zM568 317L568 317zM582 305L583 305zM579 323L579 323zM579 327L580 327zM583 306L583 306zM567 320L568 320zM573 326L573 325z"/><path class="leaflet-interactive" stroke="#333" stroke-opacity="1" stroke-width="0.5" stroke-linecap="round" stroke-linejoin="round" stroke-dasharray="1,6" fill="#fff" fill-opacity="0.2" fill-rule="evenodd" d="M537 325L536 326L539 325L537 325zM537 326L537 326zM538 325L538 325zM538 325L538 325zM538 325L538 325zM538 326L538 326zM538 325L538 325zM539 326L539 326zM538 326L538 326z"/><path class="leaflet-interactive" stroke="#333" stroke-opacity="1" stroke-width="0.5" stroke-linecap="round" stroke-linejoin="round" stroke-dasharray="1,6" fill="#fff" fill-opacity="0.2" fill-rule="evenodd" d="M534 327L534 327zM534 326L534 326z"/><path class="leaflet-interactive" stroke="#333" stroke-opacity="1" stroke-width="0.5" stroke-linecap="round" stroke-linejoin="round" stroke-dasharray="1,6" fill="#fff" fill-opacity="0.2" fill-rule="evenodd" d="M585 319L587 312L585 319zM577 335L582 330L581 329L577 335zM568 352L571 346L568 352zM565 369L565 364L565 369zM563 392L562 394L565 387L564 389zM545 415L549 410L545 415zM527 436L524 437L530 435L528 436zM504 421L504 416L504 421zM515 391L514 392L516 386L515 390zM513 368L510 363L512 367z"/></g></svg>